<?xml version="1.0" encoding="UTF-8" standalone="no"?>
<!-- Created with Inkscape (http://www.inkscape.org/) -->

<svg
   version="1.1"
   id="svg1"
   width="1024"
   height="1024"
   viewBox="0 0 1024 1024"
   xmlns="http://www.w3.org/2000/svg"
   xmlns:svg="http://www.w3.org/2000/svg">
  <defs id="defs1">
    <linearGradient id="navGradient" x1="0%" y1="0%" x2="100%" y2="100%">
      <stop offset="0%" stop-color="#D4A853" />
      <stop offset="100%" stop-color="#E0BC6A" />
    </linearGradient>
  </defs>
  <g
     id="g1">
    <path
       style="fill:url(#navGradient)"
       d="m 328.22173,845.61782 c -5.50067,-2.19342 -10.00051,-8.42943 -10.00051,-13.85901 0,-4.92552 2.46471,-9.51937 8.17587,-15.23861 16.19286,-16.21576 86.27337,-84.40126 87.44312,-85.07862 2.25167,-1.30386 1.70714,-2.09012 -5.36899,-7.75246 -3.7125,-2.97074 -13.05,-11.5589 -20.75,-19.0848 l -14,-13.68344 -8.5,7.47319 c -12.57247,11.0537 -45.69904,39.64668 -78,67.32518 -15.675,13.43181 -30.92193,26.60277 -33.88207,29.2688 -6.70177,6.03591 -11.92762,8.75368 -16.82809,8.75167 -8.32753,-0.003 -15.28984,-6.60536 -15.28984,-14.49845 0,-7.70803 -1.70332,-6.03705 60.5,-59.35132 68.0471,-58.32295 71.5,-61.31156 71.5,-61.8858 0,-0.31206 -2.66082,-4.71624 -5.91293,-9.78707 -30.35007,-47.32313 -44.57753,-99.52756 -42.78118,-156.97581 1.26758,-40.53783 8.87508,-74.50872 25.06453,-111.92426 24.45065,-56.50803 68.62521,-107.72256 126.12958,-146.23047 46.93836,-31.43236 107.5477,-54.40118 167,-63.28715 23.38372,-3.49503 38.40314,-4.34288 66.92812,-3.77812 29.78358,0.58968 46.28274,2.23638 68.39415,6.82611 33.12245,6.87532 70.75685,21.28955 76.45986,29.28464 3.3428,4.6863 3.07982,12.13486 -0.59871,16.95767 -6.41874,8.41539 -12.60329,9.52289 -24.34628,4.3598 -23.5823,-10.36853 -55.48988,-17.99832 -88.83714,-21.24286 -17.37956,-1.69096 -53.84402,-1.91674 -70.5,-0.43652 -63.72521,5.66326 -124.9263,26.45036 -178,60.45813 -28.57047,18.30696 -61.96652,50.16826 -80.93312,77.21376 -57.37613,81.81571 -66.89986,185.36405 -24.81446,269.79927 5.334,10.70151 15.17793,26.5 16.51198,26.5 0.44509,0 9.79268,-7.32205 20.77243,-16.27123 23.03878,-18.77804 42.36264,-34.4126 71.96317,-58.22401 11.55,-9.29111 21.225,-17.16798 21.5,-17.50416 1.75387,-2.14405 27.73983,-22.33138 29.71017,-23.08051 3.96484,-1.50743 10.56828,-1.04771 13.86987,0.96559 3.24038,1.97598 6.41996,7.44745 6.41996,11.04757 0,6.62859 -3.05759,9.66291 -41.92315,41.60408 -10.68273,8.77947 -27.10773,22.28134 -36.5,30.00415 -31.47318,25.8789 -51.14304,41.91207 -58.8366,47.95852 -4.19895,3.3 -7.65826,6.31472 -7.68735,6.69938 -0.0291,0.38466 4.7846,5.40368 10.6971,11.15337 9.99497,9.71976 16.18488,15.07733 25.48598,22.05893 l 3.73598,2.80431 20.26402,-19.33584 c 11.14521,-10.63471 36.46402,-35.26589 56.26402,-54.73596 19.8,-19.47007 37.35,-36.24086 39,-37.26842 8.22917,-5.12483 20.5,0.87572 20.5,10.02469 0,1.99691 -0.7875,5.06147 -1.75,6.81014 -2.4604,4.47005 -43.47694,47.27922 -79.06056,82.5159 l -30.01919,29.72651 17.16487,8.45492 c 53.22358,26.2164 100.63793,37.51165 157.71499,37.57155 39.6843,0.0417 72.02833,-4.28377 108.44989,-14.50319 12.58204,-3.53035 40.36134,-12.79653 43.66737,-14.56586 1.8912,-1.01215 1.92299,-3.37578 1.63071,-121.2622 -0.29065,-117.23502 -0.25015,-120.30318 1.62624,-123.16995 2.73268,-4.17503 5.45011,-6.15916 10.32079,-7.53571 7.89856,-2.23229 17.80308,1.1186 20.14745,6.81627 0.82193,1.99757 1.05729,37.86749 0.86766,132.23102 l -0.26022,129.48985 -5.41415,3.23528 c -14.15928,8.46101 -50.50665,21.85338 -78.08585,28.77111 -59.65092,14.96232 -109.1986,16.9928 -169.42208,6.94298 -44.50823,-7.42733 -98.48842,-26.62227 -129.87854,-46.1838 l -2.80062,-1.74528 -47.69938,48.09608 c -30.3574,30.60988 -49.02681,48.6974 -51.35051,49.75 -4.0185,1.82033 -11.94802,2.08574 -15.84836,0.53047 z m 306.01942,-222.6281 c -7.39368,-3.71472 -9.27005,-10.0486 -7.01103,-23.66654 2.28142,-13.75294 9.89821,-96.06097 12.209,-131.93208 l 0.31245,-4.85017 -3.51518,0.55198 c -1.93334,0.30359 -8.24017,1.46773 -14.01517,2.58698 -36.08984,6.99455 -82.60009,13.67049 -136.59754,19.60679 -12.99319,1.42843 -21.54881,-8.41446 -16.45689,-18.93298 3.31935,-6.85685 6.78353,-8.07573 31.55443,-11.10254 51.99844,-6.35381 112.91523,-16.39605 143.19557,-23.60603 14.71988,-3.50492 17.98193,-3.59479 22.40655,-0.6173 5.59117,3.7625 6.16845,7.21504 4.3574,26.06032 -0.85378,8.88422 -2.6423,28.07812 -3.97449,42.65312 -3.55074,38.84751 -8.32915,89.88429 -9.59673,102.5 -1.35673,13.50296 -3.3257,18.53061 -8.15447,20.82202 -4.55717,2.16252 -10.32059,2.1337 -14.7139,-0.0736 z"
       id="path1" />
  </g>
</svg>
